# xmcd
#
# Track frame offsets:
#	225
#	22338
#	39954
#	55587
#	78199
#	93793
#	109583
#	130280
#	145322
#	167071
#	184106
#	201755
#
# Disc length: 2913 seconds
#
# Revision: 1
# Processed by: cddbd v1.5.2PL0 Copyright (c) Steve Scherf et al.
# Submitted via: audiograbber 1.83.01
#
DISCID=990b5e0c
DTITLE=Johan o Gunilla Sigvardsson - Tillsammans
DYEAR=2007
DGENRE=christian
TTITLE0=Jesus är hans namn 4,54
TTITLE1=Green green grass of home 3,54
TTITLE2=Pärleporten 3,28
TTITLE3=Blott en dag 5,01
TTITLE4=Som en väg 3,27
TTITLE5=He touched me 3,30
TTITLE6=Det finns en källa 4,35
TTITLE7=Vi ska gå hand i hand 3,20
TTITLE8=Där rosor aldrig dör 4,49
TTITLE9=It is no secret 3,47
TTITLE10=Vilken underbar värld 3,55
TTITLE11=I Herrens händer 3,43
EXTD=
EXTT0=
EXTT1=
EXTT2=
EXTT3=
EXTT4=
EXTT5=
EXTT6=
EXTT7=
EXTT8=
EXTT9=
EXTT10=
EXTT11=
PLAYORDER=
